<?xml version="1.0" encoding="utf-8"?>
<!-- Generator: Adobe Illustrator 27.9.3, SVG Export Plug-In . SVG Version: 9.03 Build 53313)  -->
<!DOCTYPE svg PUBLIC "-//W3C//DTD SVG 1.1//EN" "http://www.w3.org/Graphics/SVG/1.1/DTD/svg11.dtd" [
	<!ENTITY ns_extend "http://ns.adobe.com/Extensibility/1.0/">
	<!ENTITY ns_ai "http://ns.adobe.com/AdobeIllustrator/10.0/">
	<!ENTITY ns_graphs "http://ns.adobe.com/Graphs/1.0/">
	<!ENTITY ns_vars "http://ns.adobe.com/Variables/1.0/">
	<!ENTITY ns_imrep "http://ns.adobe.com/ImageReplacement/1.0/">
	<!ENTITY ns_sfw "http://ns.adobe.com/SaveForWeb/1.0/">
	<!ENTITY ns_custom "http://ns.adobe.com/GenericCustomNamespace/1.0/">
	<!ENTITY ns_adobe_xpath "http://ns.adobe.com/XPath/1.0/">
]>
<svg version="1.1"
	 id="svg4372" xmlns:x="&ns_extend;" xmlns:i="&ns_ai;" xmlns:graph="&ns_graphs;" xmlns:cc="http://creativecommons.org/ns#" xmlns:dc="http://purl.org/dc/elements/1.1/" xmlns:rdf="http://www.w3.org/1999/02/22-rdf-syntax-ns#" xmlns:inkscape="http://www.inkscape.org/namespaces/inkscape" xmlns:svg="http://www.w3.org/2000/svg" xmlns:sodipodi="http://sodipodi.sourceforge.net/DTD/sodipodi-0.dtd"
	 xmlns="http://www.w3.org/2000/svg" xmlns:xlink="http://www.w3.org/1999/xlink" x="0px" y="0px" viewBox="0 0 180 73"
	 style="enable-background:new 0 0 180 73;" xml:space="preserve">
<style type="text/css">
	.st0{fill:#222222;}
	.st1{fill:#FFF30A;}
	.st2{fill:#FBC707;}
	.st3{fill:#F46E26;}
	.st4{fill:#FFFFFF;}
	.st5{fill-rule:evenodd;clip-rule:evenodd;fill:#FFF30A;}
	.st6{fill:#231F20;}
</style>
<metadata  id="metadata4377">
	<rdf:RDF>
		<cc:Work  rdf:about="">
			<dc:format>image/svg+xml</dc:format>
			<dc:type  rdf:resource="http://purl.org/dc/dcmitype/StillImage"></dc:type>
		</cc:Work>
	</rdf:RDF>
	<sfw  xmlns="&ns_sfw;">
		<slices></slices>
		<sliceSourceBounds  bottomLeftOrigin="true" height="73" width="180" x="0" y="0"></sliceSourceBounds>
	</sfw>
</metadata>
<rect class="st0" width="180" height="73"/>
<sodipodi:namedview  bordercolor="#666666" borderopacity="1" fit-margin-bottom="0" fit-margin-left="0" fit-margin-right="0" fit-margin-top="0" gridtolerance="10" guidetolerance="10" id="namedview17" inkscape:current-layer="svg4372" inkscape:cx="-6.5760288" inkscape:cy="0" inkscape:pagecheckerboard="true" inkscape:pageopacity="0" inkscape:pageshadow="2" inkscape:window-height="1050" inkscape:window-maximized="1" inkscape:window-width="1862" inkscape:window-x="58" inkscape:window-y="30" inkscape:zoom="1.8248095" objecttolerance="10" pagecolor="#afb0af" showgrid="false">
	</sodipodi:namedview>
<g id="g5043" transform="matrix(0.15944769,0,0,0.15944769,48.159579,111.28991)">
	<path id="path853" class="st1" d="M-208.1-519.7v-147.8h-49.3l0,147.8H-208.1z"/>
	<path id="path855" class="st2" d="M-158.9-519.7v-147.8h-49.3v147.8L-158.9-519.7L-158.9-519.7z"/>
	<path id="path857" class="st1" d="M-109.6-519.7v-147.8h-49.3v147.8L-109.6-519.7L-109.6-519.7z"/>
	<path id="path859" class="st3" d="M-109.6-519.7v-147.8h-49.3v147.8L-109.6-519.7L-109.6-519.7z"/>
	<path id="path861" class="st4" d="M38-519.6l-60.6-78.8l57.5-69.3h-47.1l-45.5,60.8v-60.8h-38.2v148.1h38.2v-43.3l10-12.4
		l38.9,55.7H38z"/>
	<path id="path863" class="st4" d="M158.1-667.7H49.5v33.2h108.6V-667.7z M49.5-611.3v91.7h108.6v-33.3H87.7V-578h68.8v-33.3H49.5z"
		/>
	<path id="path865" class="st4" d="M308.8-618.4c0-27.5-18.6-49.3-51.5-49.3h-74.2v33.2h15.1h38.1h25.3c11.3,0,11.3,11.3,11.3,11.3
		v0.7c0,11.3-11.3,11.3-11.3,11.3h-25.3h-26.9h-25.3c-0.4,0-0.7-0.1-1-0.1v33.4l51.2,0l31.4,58.4h43.7L279.3-574
		C293.3-578.9,308.8-592.7,308.8-618.4"/>
	<path id="path867" class="st4" d="M479.3-593.6c0-45.1-33.7-76.6-79-76.6c-45.3,0-79.3,31.5-79.3,76.6c0,45.1,33.9,76.6,79.3,76.6
		C445.6-517,479.3-548.5,479.3-593.6z M440.5-593.6c0,24-15.8,42.9-40.2,42.9c-24.4,0-40.4-18.9-40.4-42.9c0-24.2,16-42.9,40.4-42.9
		C424.7-636.4,440.5-617.8,440.5-593.6"/>
	<path id="path869" class="st4" d="M576.3-551.5c-2.5,0.5-5.1,0.8-7.9,0.8c-20.7,0-31.3-12.7-31.3-30.2v-86.8h-38.8v88.1
		c0,36.4,22.6,62.6,70.2,62.6c2.8,0,5.3-0.4,7.9-0.6V-551.5z"/>
	<path id="path871" class="st4" d="M773.7-634.3v-25.2l0,0v-8.3h-24.3l-10.6,16.6h-35.2L693.1-667c-19.4,3.2-31.7,16-35.4,32.7
		L773.7-634.3L773.7-634.3z M660.8-549.6L660.8-549.6l0,30h75.2c26.5,0,42.7-15.8,45.8-36.9c0.2-1.2,0.2-2.6,0.3-4
		c0.1-1.2,0.3-2.3,0.3-3.5c0-0.1,0-0.1,0-0.2c0-0.2,0.1-0.5,0.1-0.7c0-50.6-46.5-46.3-46.5-46.3h-78c4.3,19.3,20,33.3,44.9,33.3
		h31.5c7.3,1.2,12.7,5.8,12.9,13.6c-0.5,8.8-7.6,13.6-16.5,13.6h-70V-549.6z"/>
	<path id="path873" class="st4" d="M638.1-579.6v-88.1h-38.8v145.9C625.5-530.9,638.1-552.4,638.1-579.6"/>
	<path id="path875" class="st4" d="M692.1-679.7l14.7,22.4h28.5l14.3-22.4h-21l-3.1,4.9h-9.2l-3.2-4.9H692.1z"/>
	<path id="path877" class="st1" d="M-208.1-519.7v-147.8h-49.3l0,147.8H-208.1z"/>
	<path id="path879" class="st2" d="M-158.9-519.7v-147.8h-49.3v147.8L-158.9-519.7L-158.9-519.7z"/>
	<path id="path881" class="st1" d="M-109.6-519.7v-147.8h-49.3v147.8L-109.6-519.7L-109.6-519.7z"/>
	<path id="path883" class="st3" d="M-109.6-519.7v-147.8h-49.3v147.8L-109.6-519.7L-109.6-519.7z"/>
	<path id="path885" class="st4" d="M38-519.6l-60.6-78.8l57.5-69.3h-47.1l-45.5,60.8v-60.8h-38.2v148.1h38.2v-43.3l10-12.4
		l38.9,55.7H38z"/>
	<path id="path887" class="st4" d="M158.1-667.7H49.5v33.2h108.6V-667.7z M49.5-611.3v91.7h108.6v-33.3H87.7V-578h68.8v-33.3H49.5z"
		/>
	<path id="path889" class="st4" d="M308.8-618.4c0-27.5-18.6-49.3-51.5-49.3h-74.2v33.2h15.1h38.1h25.3c11.3,0,11.3,11.3,11.3,11.3
		v0.7c0,11.3-11.3,11.3-11.3,11.3h-25.3h-26.9h-25.3c-0.4,0-0.7-0.1-1-0.1v33.4l51.2,0l31.4,58.4h43.7L279.3-574
		C293.3-578.9,308.8-592.7,308.8-618.4"/>
	<path id="path891" class="st4" d="M479.3-593.6c0-45.1-33.7-76.6-79-76.6c-45.3,0-79.3,31.5-79.3,76.6c0,45.1,33.9,76.6,79.3,76.6
		C445.6-517,479.3-548.5,479.3-593.6z M440.5-593.6c0,24-15.8,42.9-40.2,42.9c-24.4,0-40.4-18.9-40.4-42.9c0-24.2,16-42.9,40.4-42.9
		C424.7-636.4,440.5-617.8,440.5-593.6"/>
	<path id="path893" class="st4" d="M576.3-551.5c-2.5,0.5-5.1,0.8-7.9,0.8c-20.7,0-31.3-12.7-31.3-30.2v-86.8h-38.8v88.1
		c0,36.4,22.6,62.6,70.2,62.6c2.8,0,5.3-0.4,7.9-0.6V-551.5z"/>
	<path id="path895" class="st4" d="M773.7-634.3v-25.2l0,0v-8.3h-24.3l-10.6,16.6h-35.2L693.1-667c-19.4,3.2-31.7,16-35.4,32.7
		L773.7-634.3L773.7-634.3z M660.8-549.6L660.8-549.6l0,30h75.2c26.5,0,42.7-15.8,45.8-36.9c0.2-1.2,0.2-2.6,0.3-4
		c0.1-1.2,0.3-2.3,0.3-3.5c0-0.1,0-0.1,0-0.2c0-0.2,0.1-0.5,0.1-0.7c0-50.6-46.5-46.3-46.5-46.3h-78c4.3,19.3,20,33.3,44.9,33.3
		h31.5c7.3,1.2,12.7,5.8,12.9,13.6c-0.5,8.8-7.6,13.6-16.5,13.6h-70V-549.6z"/>
	<path id="path897" class="st4" d="M638.1-579.6v-88.1h-38.8v145.9C625.5-530.9,638.1-552.4,638.1-579.6"/>
	<path id="path899" class="st4" d="M692.1-679.7l14.7,22.4h28.5l14.3-22.4h-21l-3.1,4.9h-9.2l-3.2-4.9H692.1z"/>
	<path id="path901" class="st5" d="M-257.5-461.7h1040v200.5h-1040V-461.7z"/>
	<path id="path905" class="st6" d="M-48.6-433.1c0,5.1-1.8,9.5-5.5,13.2c-3.7,3.6-8,5.5-13.2,5.5c-5.1,0-9.5-1.8-13.2-5.5
		c-3.6-3.7-5.5-8-5.5-13.2c0-5.1,1.8-9.5,5.5-13.2c3.7-3.6,8-5.5,13.2-5.5c5.1,0,9.5,1.8,13.2,5.4
		C-50.4-442.7-48.6-438.3-48.6-433.1z M-58.8-433.1c0-2.4-0.8-4.3-2.5-6c-1.7-1.6-3.6-2.5-6-2.5c-2.3,0-4.3,0.8-6,2.5
		c-1.6,1.7-2.4,3.6-2.4,6c0,2.3,0.8,4.3,2.4,6c1.7,1.6,3.7,2.5,6,2.5c2.4,0,4.3-0.8,6-2.5C-59.6-428.8-58.8-430.8-58.8-433.1"/>
	<path id="path907" class="st6" d="M-206-274.5h-32.9v-128.6h36.7c14.3,0,24.4,0.7,30.2,2.1c5.8,1.4,10.7,3.8,14.7,7.2
		c4.7,3.9,8.4,8.8,10.9,14.7c2.5,5.9,3.7,12.4,3.7,19.6c0,7.7-1.2,14.4-3.7,20.2c-2.5,5.8-6.1,10.6-10.9,14.4
		c-3.6,2.8-7.9,4.8-12.8,6.1c-4.9,1.2-12.8,1.9-23.6,1.9h-6h-6.3L-206-274.5z M-206-345.2h6.7c8.4,0,14.3-1.2,17.6-3.5
		c3.3-2.3,5-6.2,5-11.8c0-5.4-1.6-9.2-4.9-11.5c-3.3-2.3-9.1-3.4-17.4-3.4h-7V-345.2z"/>
	<path id="path909" class="st6" d="M-125.7-403.1h34.9v62.6c0,9.2,0.2,15.8,0.7,19.8c0.5,4,1.3,7.4,2.4,10.1c1.3,3.3,3.7,5.8,7,7.5
		c3.3,1.7,7.4,2.6,12.2,2.6c4.8,0,8.8-0.9,12.2-2.6c3.3-1.7,5.7-4.3,7-7.5c1.1-2.7,1.9-6.1,2.4-10.1c0.4-4,0.7-10.6,0.7-19.8v-8.8
		v-53.8h34.9v68c0,14.1-0.8,24.5-2.5,31.2c-1.7,6.7-4.6,12.4-8.6,17.2c-4.4,5.2-10.4,9.1-18.1,11.7c-7.7,2.6-17,3.9-27.9,3.9
		c-11,0-20.3-1.3-28-3.9c-7.6-2.6-13.7-6.5-18.1-11.7c-4-4.8-6.8-10.5-8.6-17.2c-1.7-6.7-2.6-17.1-2.6-31.2v-13.3L-125.7-403.1z"/>
	<path id="path911" class="st6" d="M40.7-403.1h34.9v83.5c0,9-0.6,16-1.8,20.9c-1.2,4.9-3.1,9.1-5.8,12.9c-3.6,4.9-7.9,8.5-13.2,11
		c-5.2,2.5-11.1,3.7-17.5,3.7c-8.1,0-15.3-1.7-21.6-5.2c-6.3-3.4-11.8-8.5-16.2-15.3L20.9-311c0.5,3.8,1.8,6.7,3.7,8.8
		c2,2.1,4.4,3.1,7.3,3.1c3.3,0,5.6-1.9,6.9-5.5c1.3-3.7,1.9-12.9,1.9-27.7L40.7-403.1z"/>
	<path id="path913" class="st6" d="M194.6-398.1v38.3c-4.8-5.3-9.6-9.2-14.4-11.7c-4.8-2.5-9.9-3.8-15.3-3.8
		c-10.1,0-18.2,3.4-24.5,10.3c-6.2,6.9-9.4,15.8-9.4,26.9c0,10.3,3.2,18.9,9.5,25.6c6.4,6.8,14.4,10.2,24.3,10.2
		c5.4,0,10.5-1.2,15.3-3.7c4.8-2.5,9.6-6.4,14.4-11.7v38.3c-5.5,2.7-11.1,4.7-16.6,6.1c-5.5,1.3-11.1,2-16.7,2
		c-7,0-13.5-0.8-19.4-2.5c-5.9-1.7-11.4-4.2-16.4-7.6c-9.6-6.4-16.9-14.5-21.9-24.3c-5-9.8-7.6-20.8-7.6-33c0-9.8,1.6-18.8,4.8-26.8
		c3.2-8.1,8-15.4,14.4-21.9c6.1-6.3,13-10.9,20.6-14.1c7.6-3.1,16.1-4.6,25.5-4.6c5.6,0,11.2,0.7,16.7,2
		C183.5-402.8,189.1-400.8,194.6-398.1z M130.2-447.5h13.5l14.7,15.8l14.6-15.8h13.4l-16,30.8h-24.2L130.2-447.5z"/>
	<path id="path915" class="st6" d="M346.4-338.5c0,9.3-1.7,17.9-5.1,26c-3.4,8.1-8.3,15.3-14.8,21.7c-6.6,6.3-14.1,11.2-22.5,14.6
		c-8.4,3.4-17.2,5.1-26.2,5.1c-9.2,0-18-1.7-26.4-5.1c-8.4-3.4-15.8-8.3-22.1-14.6c-6.6-6.4-11.6-13.6-15.1-21.8
		c-3.4-8.1-5.1-16.8-5.1-25.9c0-9.2,1.7-17.8,5.1-26c3.4-8.1,8.5-15.3,15.1-21.7c6.4-6.3,13.8-11.2,22.1-14.6
		c8.4-3.4,17.2-5.1,26.4-5.1c9.1,0,17.9,1.7,26.4,5.1c8.5,3.4,15.9,8.3,22.3,14.6c6.4,6.3,11.4,13.5,14.8,21.7
		C344.7-356.4,346.4-347.7,346.4-338.5z M277.7-300.8c9.7,0,17.7-3.6,24.1-10.7c6.4-7.2,9.5-16.2,9.5-27.1c0-10.8-3.2-19.8-9.7-27
		c-6.4-7.2-14.4-10.8-24-10.8c-9.7,0-17.7,3.6-24.1,10.8c-6.4,7.2-9.5,16.2-9.5,27c0,11,3.1,20,9.4,27.1
		C259.7-304.3,267.8-300.8,277.7-300.8"/>
	<path id="path917" class="st6" d="M402-274.5l-53.9-128.6h37.2l25.7,71.9c0.2,0.8,0.7,2.6,1.5,5.5c0.7,2.9,1.7,6.8,2.8,11.7
		c0.9-3.9,1.8-7.5,2.6-10.6c0.8-3.2,1.4-5.4,1.8-6.6l25.6-71.9h37.2l-53.9,128.6L402-274.5z"/>
	<path id="path919" class="st6" d="M493-274.5v-128.6h33.8l48.6,66.1c0.9,1.3,2.5,4.1,4.6,8.2c2.2,4,4.5,8.9,7.1,14.5
		c-0.7-5.3-1.2-10.1-1.5-14.2c-0.3-4.2-0.5-7.9-0.5-11.1v-63.5h33.6v128.6h-33.6l-48.6-66.4c-1-1.4-2.6-4.1-4.7-8.1
		c-2.2-4.1-4.5-8.9-7-14.4c0.7,5.4,1.2,10.2,1.5,14.3c0.3,4.2,0.5,7.9,0.5,11.1v63.5L493-274.5z"/>
	<path id="path921" class="st6" d="M680.3-322.5h34.9L702-365c-0.4-1.3-1-3.4-1.6-6.2c-0.7-2.9-1.6-6.6-2.7-11.1
		c-0.7,3.2-1.5,6.2-2.3,9.1c-0.7,2.8-1.5,5.6-2.2,8.2L680.3-322.5z M631.2-274.5l44.4-128.6h43.9l44.4,128.6H729l-6.5-23h-49.8
		l-6.7,23L631.2-274.5z"/>
</g>
</svg>
