<svg xmlns="http://www.w3.org/2000/svg" viewBox="0 0 1000 1000" role="img" aria-labelledby="t">
<title id="t">ONDRAWEB</title>
<rect width="1000" height="1000" rx="190" fill="#0A0A0B"/>
<path fill="#E8A64A" d="M500 820.66Q419.17 820.66 357.88 784.24Q296.59 747.82 263.28 676.32Q229.97 604.81 229.97 500Q229.97 395.19 263.28 323.68Q296.59 252.18 357.88 215.76Q419.17 179.34 500 179.34Q581.72 179.34 642.56 215.76Q703.41 252.18 736.72 323.68Q770.03 395.19 770.03 500Q770.03 604.81 736.72 676.32Q703.41 747.82 642.56 784.24Q581.72 820.66 500 820.66ZM500 716.73Q545.3 716.73 577.72 696.3Q610.14 675.87 627.91 638.12Q645.67 600.37 645.67 547.97L645.67 452.03Q645.67 398.74 627.91 361.43Q610.14 324.13 577.72 303.7Q545.3 283.27 500 283.27Q456.48 283.27 423.61 303.7Q390.74 324.13 372.54 361.43Q354.33 398.74 354.33 452.03L354.33 547.97Q354.33 600.37 372.54 638.12Q390.74 675.87 423.61 696.3Q456.48 716.73 500 716.73Z"/>
</svg>
